<svg width="18" height="18" viewBox="0 0 18 18" fill="none" xmlns="http://www.w3.org/2000/svg">
<path d="M17.0343 3.05767C16.8234 2.80451 16.5593 2.6009 16.2607 2.4613C15.9622 2.3217 15.6367 2.24954 15.3071 2.24994H3.18142L3.14992 1.9867C3.08546 1.43953 2.82247 0.935026 2.41081 0.568844C1.99915 0.202662 1.46743 0.000256339 0.916477 0L0.749981 0C0.551074 0 0.360313 0.0790157 0.219664 0.219664C0.0790157 0.360313 0 0.551074 0 0.749981C0 0.948889 0.0790157 1.13965 0.219664 1.2803C0.360313 1.42095 0.551074 1.49996 0.749981 1.49996H0.916477C1.10017 1.49999 1.27747 1.56743 1.41474 1.68949C1.55202 1.81156 1.63972 1.97976 1.66121 2.1622L2.69318 10.937C2.80032 11.8495 3.23878 12.691 3.92533 13.3017C4.61189 13.9123 5.49875 14.2497 6.41759 14.2496H14.2496C14.4485 14.2496 14.6393 14.1706 14.78 14.03C14.9206 13.8893 14.9996 13.6986 14.9996 13.4997C14.9996 13.3008 14.9206 13.11 14.78 12.9693C14.6393 12.8287 14.4485 12.7497 14.2496 12.7497H6.41759C5.95339 12.7484 5.50096 12.6035 5.12232 12.335C4.74368 12.0664 4.45737 11.6874 4.30264 11.2497H13.2424C14.1216 11.2498 14.9729 10.9409 15.6475 10.3771C16.3221 9.81324 16.7771 9.0303 16.9331 8.16504L17.5218 4.89963C17.5806 4.57564 17.5674 4.24269 17.4831 3.92438C17.3989 3.60607 17.2457 3.31017 17.0343 3.05767ZM16.0496 4.63338L15.4601 7.8988C15.3665 8.41854 15.093 8.88877 14.6875 9.22717C14.2821 9.56556 13.7705 9.75056 13.2424 9.74975H4.06415L3.35842 3.74991H15.3071C15.4173 3.74925 15.5263 3.77287 15.6263 3.8191C15.7263 3.86532 15.8149 3.93301 15.8857 4.01735C15.9566 4.1017 16.0081 4.20062 16.0364 4.30709C16.0647 4.41357 16.0692 4.52497 16.0496 4.63338Z" fill="white"/>
<path d="M5.24996 18C6.07836 18 6.74992 17.3284 6.74992 16.5C6.74992 15.6716 6.07836 15.0001 5.24996 15.0001C4.42155 15.0001 3.75 15.6716 3.75 16.5C3.75 17.3284 4.42155 18 5.24996 18Z" fill="white"/>
<path d="M12.7497 18C13.5781 18 14.2496 17.3284 14.2496 16.5C14.2496 15.6716 13.5781 15.0001 12.7497 15.0001C11.9212 15.0001 11.2497 15.6716 11.2497 16.5C11.2497 17.3284 11.9212 18 12.7497 18Z" fill="white"/>
</svg>
