<svg width="8" height="8" viewBox="0 0 8 8" fill="none" xmlns="http://www.w3.org/2000/svg">
<path d="M6.29817 7.35869C6.59106 7.65159 7.06594 7.65159 7.35883 7.35869C7.65172 7.0658 7.65172 6.59093 7.35883 6.29803L5.06079 3.99999L7.35882 1.70197C7.65171 1.40908 7.65171 0.934204 7.35882 0.64131C7.06592 0.348417 6.59105 0.348417 6.29816 0.64131L4.00013 2.93933L1.70198 0.641179C1.40908 0.348285 0.934209 0.348286 0.641316 0.641179C0.348422 0.934072 0.348422 1.40895 0.641316 1.70184L2.93947 3.99999L0.641301 6.29816C0.348408 6.59106 0.348408 7.06593 0.641301 7.35882C0.934194 7.65172 1.40907 7.65172 1.70196 7.35882L4.00013 5.06065L6.29817 7.35869Z" fill="white"/>
</svg>
