<svg width="32" height="21" viewBox="0 0 32 21" fill="none" xmlns="http://www.w3.org/2000/svg">
<g clip-path="url(#clip0_81_121)">
<path d="M23.0862 9.40332V14.4376H25.846V11.4543H28.9738C30.2893 11.445 31.407 10.592 31.8302 9.40332H23.0862Z" fill="#A6A6A6"/>
<path d="M22.718 5.25452C22.879 7.31017 24.8017 8.93697 27.1475 8.93697C27.1567 8.93697 31.945 8.93697 31.945 8.93697C31.9818 8.75052 32.0002 8.55474 32.0002 8.35431C32.0002 6.64826 30.6433 5.2685 28.9644 5.25452H22.718Z" fill="#A6A6A6"/>
<path d="M18.6332 8.8857C18.6654 8.82976 18.716 8.79713 18.7804 8.79713C18.8723 8.79713 18.9413 8.87172 18.9459 8.96028V14.3907H21.7057V5.25452H18.9459C18.5964 5.2685 18.2008 5.52487 18.0536 5.84651L15.8596 10.6197C15.855 10.6384 15.8458 10.657 15.8366 10.6757C15.8044 10.7223 15.7492 10.7549 15.6848 10.7549C15.5836 10.7549 15.5008 10.671 15.5008 10.5684V5.25452H12.741V14.3907H15.5008C15.8458 14.3721 16.2321 14.1157 16.3793 13.7987L18.6332 8.89968C18.6286 8.89502 18.6332 8.89036 18.6332 8.8857Z" fill="#A6A6A6"/>
<path d="M8.33003 9.04433L6.71554 14.3909H4.72848L3.11859 9.03967C3.10479 8.95576 3.03119 8.89051 2.9392 8.89051C2.838 8.89051 2.75981 8.97441 2.75981 9.0723V14.3862H0V5.25H2.36884H3.07259C3.57855 5.25 4.11212 5.65088 4.25931 6.14032L5.60242 10.5919C5.67141 10.8156 5.7772 10.811 5.8462 10.5919L7.18931 6.14032C7.3365 5.64621 7.87006 5.25 8.37602 5.25H9.07978H11.4486V14.3862H8.6888V9.0723C8.6888 9.0723 8.6888 9.0723 8.6888 9.06764C8.6888 8.96509 8.60601 8.88584 8.50941 8.88584C8.41742 8.89051 8.34383 8.95576 8.33003 9.04433Z" fill="#A6A6A6"/>
</g>
<defs>
<clipPath id="clip0_81_121">
<rect width="32" height="21" fill="white"/>
</clipPath>
</defs>
</svg>
