<svg width="16" height="16" viewBox="0 0 16 16" fill="none" xmlns="http://www.w3.org/2000/svg">
<path d="M7.32832 3.51176C5.48686 3.65019 3.70998 4.2505 2.16187 5.25723C2.3643 4.45056 2.79304 3.71854 3.3976 3.14739C4.00215 2.57624 4.75733 2.18975 5.57419 2.03344C5.79034 1.98996 6.01352 1.9958 6.22711 2.05054C6.44069 2.10527 6.63917 2.20749 6.80776 2.34958C6.97636 2.49167 7.11072 2.66996 7.20085 2.87118C7.29098 3.0724 7.33455 3.29136 7.32832 3.51176ZM15.7585 3.49644C15.5165 3.16536 15.2096 2.88709 14.8565 2.67862C14.5033 2.47015 14.1114 2.33585 13.7046 2.28394C13.6527 1.87715 13.5184 1.48522 13.3099 1.13208C13.1014 0.77894 12.8232 0.472003 12.4921 0.230013C12.3223 0.10224 12.1203 0.0242604 11.9087 0.00480675C11.6971 -0.0146469 11.4842 0.0251938 11.294 0.119867C11.1037 0.21454 10.9436 0.360307 10.8315 0.540843C10.7194 0.721379 10.6598 0.929554 10.6594 1.14205V4.66297C5.65147 4.66297 2.7941 5.62031 1.30779 8.12326C2.885 8.53525 4.32378 9.36049 5.47576 10.5139C6.62773 11.6673 7.45122 13.107 7.86129 14.6847C10.3669 13.1991 11.3256 10.3411 11.3256 5.32918L14.8465 5.32918C15.059 5.32871 15.2672 5.2691 15.4477 5.15702C15.6282 5.04493 15.774 4.8848 15.8687 4.69455C15.9633 4.50431 16.0032 4.29146 15.9837 4.07985C15.9643 3.86824 15.8863 3.66623 15.7585 3.49644ZM12.7912 8.66022H12.4748C12.3743 9.56291 12.193 10.4548 11.9332 11.3251H12.4755C14.1323 11.3764 14.6646 8.74283 12.7912 8.66022ZM6.62947 15.263C5.03057 15.7214 2.27446 16.6907 0.780152 15.2084C0.511801 14.9408 0.303864 14.6189 0.170332 14.2643C0.0368011 13.9097 -0.0192272 13.5306 0.00601722 13.1525C0.0678126 11.8593 0.310219 10.5811 0.726189 9.35508C2.16844 9.68018 3.48879 10.4079 4.53379 11.4538C5.57879 12.4996 6.3055 13.8205 6.62947 15.263ZM3.33107 13.3237C3.33107 13.147 3.26088 12.9775 3.13594 12.8526C3.011 12.7277 2.84155 12.6575 2.66486 12.6575C2.48817 12.6575 2.31871 12.7277 2.19378 12.8526C2.06884 12.9775 1.99865 13.147 1.99865 13.3237C1.99865 13.5004 2.06884 13.6698 2.19378 13.7948C2.31871 13.9197 2.48817 13.9899 2.66486 13.9899C2.84155 13.9899 3.011 13.9197 3.13594 13.7948C3.26088 13.6698 3.33107 13.5004 3.33107 13.3237Z" fill="white"/>
</svg>
