<svg width="16" height="16" viewBox="0 0 16 16" fill="none" xmlns="http://www.w3.org/2000/svg">
<path d="M10.3337 8.22218V5.41831L8.68518 4.6614C6.8576 6.83587 6.17445 12.4999 1.74989 12.4999C1.28574 12.4999 0.840604 12.6842 0.512401 13.0124C0.184199 13.3406 -0.000183105 13.7858 -0.000183105 14.2499C-0.000183105 14.7141 0.184199 15.1592 0.512401 15.4874C0.840604 15.8156 1.28574 16 1.74989 16C8.39517 16 13.3332 12.1602 14.8498 9.4266L13.6919 8.22218H10.3337ZM14.4304 4.21045C15.4355 2.34037 14.9123 0.82687 14.3323 0.0930895C14.3102 0.0656475 14.2825 0.0431944 14.2511 0.0272037C14.2197 0.0112131 14.1852 0.00204638 14.15 0.000305197C14.1148 -0.00143599 14.0796 0.00428771 14.0468 0.0171007C14.0139 0.0299136 13.9842 0.0495262 13.9595 0.0746512L13.2438 0.793431C13.2027 0.835175 13.1775 0.889931 13.1724 0.948279C13.1673 1.00663 13.1827 1.06492 13.216 1.11313C13.4304 1.4369 13.7488 2.21005 13.1722 3.37323C12.6089 3.12696 12.0007 2.99971 11.3859 2.99946C10.5109 2.99946 9.69835 3.26635 9.00019 3.70543L11.3337 4.77703V7.22214H14.1179L15.8267 8.99971C15.9286 8.60532 16.0005 8.19874 16.0005 7.77122C16.0011 7.1011 15.8618 6.43823 15.5914 5.82506C15.321 5.2119 14.9256 4.66196 14.4304 4.21045Z" fill="white"/>
</svg>
