<svg width="16" height="20" viewBox="0 0 16 20" fill="none" xmlns="http://www.w3.org/2000/svg">
<path fill-rule="evenodd" clip-rule="evenodd" d="M8.00002 1.84999C6.26033 1.84999 4.85002 3.2603 4.85002 4.99999C4.85002 6.73969 6.26033 8.14999 8.00002 8.14999C9.73972 8.14999 11.15 6.73969 11.15 4.99999C11.15 3.2603 9.73972 1.84999 8.00002 1.84999ZM3.15002 4.99999C3.15002 2.32141 5.32144 0.149994 8.00002 0.149994C10.6786 0.149994 12.85 2.32141 12.85 4.99999C12.85 7.67858 10.6786 9.84999 8.00002 9.84999C5.32144 9.84999 3.15002 7.67858 3.15002 4.99999ZM3.43041 13.7854C2.25402 14.3736 1.85002 15.0289 1.85002 15.5C1.85002 15.9711 2.25402 16.6264 3.43041 17.2146C4.55596 17.7774 6.17037 18.15 8.00002 18.15C9.82968 18.15 11.4441 17.7774 12.5696 17.2146C13.746 16.6264 14.15 15.9711 14.15 15.5C14.15 15.0289 13.746 14.3736 12.5696 13.7854C11.4441 13.2226 9.82968 12.85 8.00002 12.85C6.17037 12.85 4.55596 13.2226 3.43041 13.7854ZM2.67015 12.2649C4.0781 11.5609 5.96368 11.15 8.00002 11.15C10.0364 11.15 11.922 11.5609 13.3299 12.2649C14.687 12.9434 15.85 14.0381 15.85 15.5C15.85 16.9619 14.687 18.0566 13.3299 18.7351C11.922 19.4391 10.0364 19.85 8.00002 19.85C5.96368 19.85 4.0781 19.4391 2.67015 18.7351C1.31304 18.0566 0.150024 16.9619 0.150024 15.5C0.150024 14.0381 1.31304 12.9434 2.67015 12.2649Z" fill="currentColor" />
</svg>
