<svg width="137" height="22" viewBox="0 0 137 22" fill="none" xmlns="http://www.w3.org/2000/svg">
<path d="M119.71 3.99801H124.15V8.12601L123.982 8.70201V12.254L124.15 13.31V21.638H119.71V3.99801ZM122.686 10.838C122.926 9.36601 123.382 8.09401 124.054 7.02201C124.726 5.95001 125.574 5.11801 126.598 4.52601C127.638 3.91801 128.79 3.61401 130.054 3.61401C131.398 3.61401 132.574 3.91801 133.582 4.52601C134.606 5.13401 135.406 5.98201 135.982 7.07001C136.558 8.14201 136.846 9.39801 136.846 10.838C136.846 12.278 136.558 13.542 135.982 14.63C135.406 15.702 134.606 16.542 133.582 17.15C132.574 17.758 131.398 18.062 130.054 18.062C128.774 18.062 127.622 17.766 126.598 17.174C125.59 16.566 124.75 15.726 124.078 14.654C123.406 13.566 122.942 12.294 122.686 10.838ZM132.334 10.838C132.334 10.102 132.182 9.45401 131.878 8.89401C131.574 8.31801 131.15 7.87001 130.606 7.55001C130.078 7.21401 129.47 7.04601 128.782 7.04601C128.078 7.04601 127.406 7.21401 126.766 7.55001C126.126 7.87001 125.566 8.31801 125.086 8.89401C124.622 9.45401 124.262 10.102 124.006 10.838C124.262 11.574 124.622 12.23 125.086 12.806C125.566 13.366 126.126 13.814 126.766 14.15C127.406 14.47 128.078 14.63 128.782 14.63C129.47 14.63 130.078 14.47 130.606 14.15C131.15 13.814 131.574 13.366 131.878 12.806C132.182 12.23 132.334 11.574 132.334 10.838Z" fill="white"/>
<path d="M100.328 3.99801H104.768V8.12601L104.6 8.70201V12.254L104.768 13.31V21.638H100.328V3.99801ZM103.304 10.838C103.544 9.36601 104 8.09401 104.672 7.02201C105.344 5.95001 106.192 5.11801 107.216 4.52601C108.256 3.91801 109.408 3.61401 110.672 3.61401C112.016 3.61401 113.192 3.91801 114.2 4.52601C115.224 5.13401 116.024 5.98201 116.6 7.07001C117.176 8.14201 117.464 9.39801 117.464 10.838C117.464 12.278 117.176 13.542 116.6 14.63C116.024 15.702 115.224 16.542 114.2 17.15C113.192 17.758 112.016 18.062 110.672 18.062C109.392 18.062 108.24 17.766 107.216 17.174C106.208 16.566 105.368 15.726 104.696 14.654C104.024 13.566 103.56 12.294 103.304 10.838ZM112.952 10.838C112.952 10.102 112.8 9.45401 112.496 8.89401C112.192 8.31801 111.768 7.87001 111.224 7.55001C110.696 7.21401 110.088 7.04601 109.4 7.04601C108.696 7.04601 108.024 7.21401 107.384 7.55001C106.744 7.87001 106.184 8.31801 105.704 8.89401C105.24 9.45401 104.88 10.102 104.624 10.838C104.88 11.574 105.24 12.23 105.704 12.806C106.184 13.366 106.744 13.814 107.384 14.15C108.024 14.47 108.696 14.63 109.4 14.63C110.088 14.63 110.696 14.47 111.224 14.15C111.768 13.814 112.192 13.366 112.496 12.806C112.8 12.23 112.952 11.574 112.952 10.838Z" fill="white"/>
<path d="M93.1659 17.678L92.5659 12.71L93.2139 10.838L92.5659 8.99001L93.1659 3.99801H97.7979L96.9579 10.838L97.7979 17.678H93.1659ZM94.2699 10.838C94.0299 12.294 93.5739 13.566 92.9019 14.654C92.2299 15.726 91.3819 16.566 90.3579 17.174C89.3339 17.766 88.1819 18.062 86.9019 18.062C85.5579 18.062 84.3739 17.758 83.3499 17.15C82.3419 16.542 81.5499 15.702 80.9739 14.63C80.3979 13.542 80.1099 12.278 80.1099 10.838C80.1099 9.39801 80.3979 8.14201 80.9739 7.07001C81.5499 5.98201 82.3419 5.13401 83.3499 4.52601C84.3739 3.91801 85.5579 3.61401 86.9019 3.61401C88.1819 3.61401 89.3339 3.91801 90.3579 4.52601C91.3819 5.11801 92.2299 5.95001 92.9019 7.02201C93.5899 8.09401 94.0459 9.36601 94.2699 10.838ZM84.6219 10.838C84.6219 11.574 84.7739 12.23 85.0779 12.806C85.3819 13.366 85.7979 13.814 86.3259 14.15C86.8699 14.47 87.4939 14.63 88.1979 14.63C88.9019 14.63 89.5659 14.47 90.1899 14.15C90.8299 13.814 91.3899 13.366 91.8699 12.806C92.3499 12.23 92.7099 11.574 92.9499 10.838C92.7099 10.102 92.3499 9.45401 91.8699 8.89401C91.3899 8.31801 90.8299 7.87001 90.1899 7.55001C89.5659 7.21401 88.9019 7.04601 88.1979 7.04601C87.4939 7.04601 86.8699 7.21401 86.3259 7.55001C85.7979 7.87001 85.3819 8.31801 85.0779 8.89401C84.7739 9.45401 84.6219 10.102 84.6219 10.838Z" fill="white"/>
<path d="M69.8583 18.062C68.1303 18.062 66.6183 17.758 65.3223 17.15C64.0263 16.542 63.0183 15.694 62.2983 14.606C61.5783 13.518 61.2183 12.262 61.2183 10.838C61.2183 9.39801 61.5783 8.14201 62.2983 7.07001C63.0183 5.98201 64.0263 5.13401 65.3223 4.52601C66.6343 3.91801 68.1463 3.61401 69.8583 3.61401C71.5863 3.61401 73.0983 3.91801 74.3943 4.52601C75.7063 5.13401 76.7223 5.98201 77.4423 7.07001C78.1623 8.14201 78.5223 9.39801 78.5223 10.838C78.5223 12.278 78.1623 13.542 77.4423 14.63C76.7223 15.702 75.7063 16.542 74.3943 17.15C73.0983 17.758 71.5863 18.062 69.8583 18.062ZM69.8583 14.702C70.7383 14.702 71.4823 14.55 72.0903 14.246C72.7143 13.926 73.1863 13.478 73.5063 12.902C73.8423 12.326 74.0103 11.638 74.0103 10.838C74.0103 10.038 73.8423 9.35001 73.5063 8.77401C73.1863 8.19801 72.7143 7.75801 72.0903 7.45401C71.4823 7.13401 70.7383 6.97401 69.8583 6.97401C69.0103 6.97401 68.2743 7.13401 67.6503 7.45401C67.0263 7.75801 66.5463 8.19801 66.2103 8.77401C65.8743 9.35001 65.7063 10.038 65.7063 10.838C65.7063 11.638 65.8743 12.326 66.2103 12.902C66.5463 13.478 67.0263 13.926 67.6503 14.246C68.2743 14.55 69.0103 14.702 69.8583 14.702Z" fill="white"/>
<path d="M46.8358 7.30998V5.36598L49.6678 4.33398L51.5878 0.349976H54.1318V3.99798H60.0358V7.30998H54.1318V11.822C54.1318 12.846 54.3398 13.566 54.7558 13.982C55.1718 14.382 55.9158 14.582 56.9878 14.582C57.6758 14.582 58.2758 14.526 58.7878 14.414C59.3158 14.286 59.8118 14.118 60.2758 13.91V17.294C59.7958 17.486 59.1638 17.662 58.3798 17.822C57.6118 17.982 56.8118 18.062 55.9798 18.062C54.5238 18.062 53.3238 17.83 52.3798 17.366C51.4518 16.902 50.7638 16.254 50.3158 15.422C49.8838 14.574 49.6678 13.582 49.6678 12.446V7.30998H46.8358Z" fill="white"/>
<path d="M46.1263 13.286C46.1263 14.31 45.8223 15.182 45.2143 15.902C44.6223 16.606 43.7503 17.142 42.5983 17.51C41.4463 17.878 40.0463 18.062 38.3983 18.062C36.7183 18.062 35.2463 17.854 33.9823 17.438C32.7183 17.022 31.7343 16.438 31.0303 15.686C30.3263 14.934 29.9503 14.062 29.9023 13.07H34.4383C34.5343 13.47 34.7583 13.822 35.1103 14.126C35.4783 14.43 35.9503 14.662 36.5263 14.822C37.1023 14.966 37.7823 15.038 38.5663 15.038C39.6223 15.038 40.4223 14.926 40.9663 14.702C41.5103 14.478 41.7823 14.142 41.7823 13.694C41.7823 13.358 41.5823 13.102 41.1823 12.926C40.7983 12.75 40.1023 12.622 39.0943 12.542L36.5983 12.35C35.0303 12.238 33.7823 11.99 32.8543 11.606C31.9263 11.222 31.2623 10.734 30.8623 10.142C30.4783 9.55002 30.2863 8.88601 30.2863 8.15001C30.2863 7.14201 30.5983 6.30201 31.2223 5.63001C31.8623 4.95801 32.7423 4.45401 33.8623 4.11802C34.9823 3.78201 36.2943 3.61401 37.7983 3.61401C39.3023 3.61401 40.6383 3.81401 41.8063 4.21401C42.9903 4.61401 43.9343 5.16601 44.6383 5.87001C45.3583 6.57401 45.7663 7.39801 45.8623 8.34201H41.3263C41.2623 8.02201 41.0863 7.72601 40.7983 7.45401C40.5263 7.18201 40.1263 6.96601 39.5983 6.80602C39.0863 6.63001 38.4143 6.54201 37.5823 6.54201C36.6383 6.54201 35.9183 6.64601 35.4223 6.85401C34.9263 7.06201 34.6783 7.36601 34.6783 7.76601C34.6783 8.07001 34.8303 8.31001 35.1343 8.48601C35.4383 8.66201 36.0143 8.79001 36.8623 8.87001L40.1023 9.11001C41.6383 9.23801 42.8383 9.48602 43.7023 9.85402C44.5823 10.206 45.2063 10.67 45.5743 11.246C45.9423 11.822 46.1263 12.502 46.1263 13.286Z" fill="white"/>
<path d="M21.1054 18.062C19.4734 18.062 18.0094 17.758 16.7134 17.15C15.4334 16.542 14.4254 15.694 13.6894 14.606C12.9534 13.518 12.5854 12.246 12.5854 10.79C12.5854 9.36601 12.9374 8.11801 13.6414 7.04601C14.3454 5.97401 15.3135 5.13401 16.5455 4.52601C17.7935 3.91801 19.2014 3.61401 20.7694 3.61401C22.3694 3.61401 23.7454 3.96601 24.8974 4.67001C26.0494 5.37401 26.9374 6.36601 27.5614 7.64601C28.1854 8.92601 28.4974 10.43 28.4974 12.158H16.1614V9.35001H26.0495L24.4415 10.358C24.3934 9.60601 24.2094 8.97401 23.8895 8.46202C23.5855 7.93401 23.1774 7.53401 22.6654 7.26201C22.1534 6.97401 21.5455 6.83001 20.8414 6.83001C20.0734 6.83001 19.4094 6.98201 18.8494 7.28601C18.2894 7.59001 17.8494 8.01401 17.5294 8.55801C17.2254 9.10201 17.0735 9.73401 17.0735 10.454C17.0735 11.366 17.2735 12.142 17.6735 12.782C18.0895 13.422 18.6814 13.91 19.4494 14.246C20.2334 14.582 21.1855 14.75 22.3055 14.75C23.3295 14.75 24.3534 14.614 25.3774 14.342C26.4014 14.054 27.3214 13.654 28.1374 13.142V16.046C27.2094 16.686 26.1455 17.182 24.9455 17.534C23.7615 17.886 22.4814 18.062 21.1054 18.062Z" fill="white"/>
<path d="M0 3.99801H4.512L5.328 8.91801V17.678H0.864V8.55801L0 3.99801ZM11.856 3.80602V7.64601C11.424 7.55001 10.992 7.47801 10.56 7.43001C10.144 7.38201 9.76 7.35802 9.408 7.35802C8.64 7.35802 7.944 7.51801 7.32 7.83801C6.712 8.14201 6.224 8.63001 5.856 9.30201C5.504 9.97401 5.328 10.846 5.328 11.918L4.44 10.814C4.552 9.83801 4.736 8.91801 4.992 8.05401C5.248 7.19001 5.6 6.43001 6.048 5.77401C6.496 5.10201 7.048 4.57401 7.704 4.19001C8.376 3.80601 9.184 3.61401 10.128 3.61401C10.4 3.61401 10.688 3.63001 10.992 3.66201C11.296 3.69401 11.584 3.74201 11.856 3.80602Z" fill="white"/>
</svg>
